<svg width="25" height="24" viewBox="0 0 25 24" fill="#2D2D2D" xmlns="http://www.w3.org/2000/svg">
<path d="M13.5 4.75C13.5 4.55109 13.421 4.36032 13.2803 4.21967C13.1397 4.07902 12.9489 4 12.75 4C12.5511 4 12.3603 4.07902 12.2197 4.21967C12.079 4.36032 12 4.55109 12 4.75V11.5H5.25C5.05109 11.5 4.86032 11.579 4.71967 11.7197C4.57902 11.8603 4.5 12.0511 4.5 12.25C4.5 12.4489 4.57902 12.6397 4.71967 12.7803C4.86032 12.921 5.05109 13 5.25 13H12V19.75C12 19.9489 12.079 20.1397 12.2197 20.2803C12.3603 20.421 12.5511 20.5 12.75 20.5C12.9489 20.5 13.1397 20.421 13.2803 20.2803C13.421 20.1397 13.5 19.9489 13.5 19.75V13H20.25C20.4489 13 20.6397 12.921 20.7803 12.7803C20.921 12.6397 21 12.4489 21 12.25C21 12.0511 20.921 11.8603 20.7803 11.7197C20.6397 11.579 20.4489 11.5 20.25 11.5H13.5V4.75Z"/>
</svg>
